<svg id="svg" version="1.1" xmlns="http://www.w3.org/2000/svg" xmlns:xlink="http://www.w3.org/1999/xlink" width="400" height="400" viewBox="0, 0, 400,400"><g id="svgg"><path id="path0" d="M334.513 68.317 C 333.205 69.467,332.474 70.653,331.257 73.600 C 328.534 80.195,325.571 86.097,323.426 89.200 C 322.285 90.850,320.573 93.512,319.621 95.115 C 318.669 96.719,317.420 98.389,316.845 98.827 C 316.270 99.265,314.990 100.211,314.000 100.929 C 307.318 105.776,304.243 114.272,303.768 129.200 C 303.602 134.435,303.361 136.755,302.815 138.400 C 302.413 139.610,301.990 141.621,301.874 142.870 C 301.619 145.623,300.491 148.282,298.433 150.979 C 297.585 152.091,296.489 153.810,295.997 154.800 C 295.505 155.790,294.244 157.770,293.195 159.200 C 292.147 160.630,290.064 163.863,288.567 166.385 C 284.923 172.522,284.117 173.332,276.852 178.149 C 267.851 184.117,265.479 184.991,256.600 185.611 C 243.694 186.511,242.253 186.698,239.786 187.792 C 236.160 189.399,233.142 190.530,227.000 192.582 C 218.368 195.466,211.950 198.149,210.900 199.312 C 209.414 200.958,198.726 207.374,194.835 208.955 C 191.378 210.359,189.898 211.579,188.354 214.296 C 184.494 221.092,175.364 225.748,161.800 227.837 C 159.380 228.210,154.774 229.119,151.564 229.857 C 148.355 230.596,145.070 231.200,144.264 231.200 C 141.627 231.200,140.139 233.788,142.230 234.741 C 144.617 235.829,147.286 236.090,155.300 236.019 C 165.337 235.931,165.151 235.725,160.100 241.335 C 154.182 247.908,145.642 254.675,139.012 258.045 C 135.939 259.608,132.609 261.605,131.612 262.484 C 130.616 263.363,129.165 264.407,128.390 264.803 C 127.614 265.200,125.904 266.324,124.590 267.302 C 123.275 268.279,119.091 270.670,115.292 272.615 C 110.888 274.869,107.481 276.916,105.892 278.262 C 104.521 279.423,101.581 281.389,99.358 282.632 C 97.135 283.875,93.625 286.130,91.558 287.644 C 89.491 289.158,86.000 291.685,83.800 293.261 C 81.600 294.837,78.360 297.596,76.600 299.392 C 74.840 301.188,72.050 303.628,70.400 304.813 C 68.750 305.998,66.297 307.875,64.949 308.984 C 63.601 310.093,61.846 311.503,61.049 312.117 C 59.232 313.518,59.201 314.289,60.948 314.617 C 62.540 314.915,65.136 313.754,66.517 312.125 C 67.863 310.538,71.818 308.110,74.168 307.426 C 75.325 307.090,76.955 306.271,77.792 305.606 C 78.629 304.941,80.143 304.150,81.157 303.848 C 82.171 303.546,85.057 302.451,87.571 301.414 C 91.772 299.681,93.869 298.598,101.200 294.375 C 102.630 293.551,104.880 292.573,106.200 292.201 C 107.520 291.829,109.500 291.118,110.600 290.619 C 115.936 288.203,116.082 288.229,117.866 291.941 C 119.172 294.657,119.310 298.689,118.198 301.600 C 117.256 304.065,116.775 316.135,117.586 316.946 C 118.500 317.860,121.321 314.687,122.339 311.600 C 123.233 308.889,124.384 307.592,127.899 305.332 C 129.825 304.095,134.460 301.062,138.200 298.594 C 141.940 296.125,146.030 293.621,147.289 293.029 C 148.774 292.331,150.271 291.175,151.547 289.744 C 154.014 286.976,155.463 286.450,161.992 285.955 C 164.737 285.747,168.829 285.132,171.086 284.588 C 176.370 283.315,176.557 283.328,177.883 285.053 C 178.497 285.853,179.334 286.798,179.742 287.153 C 180.151 287.509,181.331 289.060,182.365 290.600 C 183.399 292.140,185.433 295.111,186.885 297.202 C 189.299 300.677,193.600 309.138,193.600 310.412 C 193.600 311.202,194.392 313.541,195.424 315.800 C 196.386 317.904,200.013 327.257,200.750 329.535 C 202.059 333.575,204.365 335.413,204.842 332.796 C 204.982 332.028,205.409 329.960,205.791 328.200 C 206.763 323.728,206.588 299.845,205.575 298.583 C 205.236 298.161,204.074 293.997,201.173 282.800 C 200.974 282.030,200.763 280.590,200.705 279.600 L 200.600 277.800 204.800 276.485 C 217.522 272.501,220.902 271.298,224.757 269.381 C 231.851 265.853,233.925 265.103,237.190 264.884 C 238.916 264.768,240.612 264.412,241.203 264.042 C 241.766 263.689,242.830 263.040,243.568 262.600 C 244.306 262.160,246.519 260.748,248.487 259.463 C 252.001 257.168,253.508 256.410,257.303 255.026 C 258.350 254.644,260.420 253.394,261.903 252.248 C 263.386 251.102,265.285 249.699,266.122 249.131 C 266.959 248.562,268.045 247.553,268.535 246.888 C 269.026 246.223,271.238 243.771,273.451 241.440 C 278.775 235.830,279.105 235.799,282.244 240.615 C 283.468 242.493,285.417 245.058,286.575 246.315 C 287.733 247.572,289.186 249.410,289.804 250.400 C 291.430 253.003,295.777 257.400,298.910 259.612 C 301.779 261.638,307.436 266.704,312.157 271.473 C 316.409 275.769,320.424 278.856,325.151 281.462 C 334.223 286.463,334.924 285.901,328.335 278.907 C 324.586 274.927,323.504 273.291,322.164 269.576 C 321.609 268.037,320.266 264.938,319.181 262.689 C 318.095 260.440,317.205 258.290,317.203 257.912 C 317.200 257.234,315.968 254.771,315.047 253.600 C 314.787 253.270,314.147 252.190,313.624 251.200 C 310.576 245.428,308.904 243.017,305.175 239.016 C 303.731 237.467,301.931 235.392,301.175 234.403 C 300.419 233.415,298.675 231.376,297.300 229.872 C 295.925 228.368,294.800 226.954,294.800 226.730 C 294.800 226.506,293.652 225.125,292.250 223.661 C 287.960 219.185,287.488 217.348,289.806 214.144 C 291.404 211.933,291.916 211.163,299.989 198.800 C 307.283 187.631,309.165 184.326,310.959 179.536 C 312.382 175.738,313.896 172.800,317.347 167.147 C 318.372 165.468,319.544 163.128,319.950 161.947 C 320.357 160.766,321.953 156.830,323.496 153.200 C 327.032 144.882,327.796 142.467,328.623 137.000 C 329.232 132.971,329.431 132.397,330.980 130.200 C 333.372 126.806,333.672 125.693,333.832 119.600 C 334.425 97.015,335.440 87.325,338.160 78.313 C 339.942 72.405,339.951 71.557,338.251 68.997 C 336.531 66.407,336.659 66.430,334.513 68.317 " stroke="none" fill="#1d2021" fill-rule="evenodd"></path><path id="path1" d="M182.200 0.800 C 182.064 1.020,180.343 1.200,178.376 1.200 C 176.259 1.200,174.800 1.363,174.800 1.600 C 174.800 1.829,173.600 2.000,172.000 2.000 C 170.400 2.000,169.200 2.171,169.200 2.400 C 169.200 2.622,168.133 2.800,166.800 2.800 C 165.467 2.800,164.400 2.978,164.400 3.200 C 164.400 3.420,163.500 3.600,162.400 3.600 C 161.300 3.600,160.400 3.780,160.400 4.000 C 160.400 4.220,159.590 4.400,158.600 4.400 C 157.610 4.400,156.800 4.580,156.800 4.800 C 156.800 5.020,156.080 5.200,155.200 5.200 C 154.320 5.200,153.600 5.380,153.600 5.600 C 153.600 5.820,152.880 6.000,152.000 6.000 C 151.120 6.000,150.400 6.180,150.400 6.400 C 150.400 6.620,149.680 6.800,148.800 6.800 C 147.920 6.800,147.200 6.980,147.200 7.200 C 147.200 7.420,146.480 7.600,145.600 7.600 C 144.720 7.600,144.000 7.767,144.000 7.971 C 144.000 8.175,143.010 8.466,141.800 8.617 C 140.590 8.768,139.600 9.051,139.600 9.246 C 139.600 9.441,139.141 9.600,138.581 9.600 C 138.020 9.600,136.816 9.960,135.906 10.400 C 134.995 10.840,133.834 11.200,133.325 11.200 C 132.816 11.200,132.400 11.380,132.400 11.600 C 132.400 11.820,131.860 12.000,131.200 12.000 C 130.540 12.000,130.000 12.180,130.000 12.400 C 130.000 12.620,129.645 12.800,129.212 12.800 C 128.779 12.800,127.783 13.160,127.000 13.600 C 126.217 14.040,125.221 14.400,124.788 14.400 C 124.355 14.400,124.000 14.580,124.000 14.800 C 124.000 15.020,123.640 15.200,123.200 15.200 C 122.760 15.200,122.400 15.380,122.400 15.600 C 122.400 15.820,121.961 16.000,121.424 16.000 C 120.887 16.000,120.336 16.180,120.200 16.400 C 120.064 16.620,119.603 16.800,119.176 16.800 C 118.749 16.800,118.400 16.980,118.400 17.200 C 118.400 17.420,118.040 17.600,117.600 17.600 C 117.160 17.600,116.800 17.780,116.800 18.000 C 116.800 18.220,116.440 18.400,116.000 18.400 C 115.560 18.400,115.200 18.580,115.200 18.800 C 115.200 19.020,114.840 19.200,114.400 19.200 C 113.960 19.200,113.600 19.380,113.600 19.600 C 113.600 19.820,113.240 20.000,112.800 20.000 C 112.360 20.000,112.000 20.180,112.000 20.400 C 112.000 20.620,111.640 20.800,111.200 20.800 C 110.760 20.800,110.400 20.980,110.400 21.200 C 110.400 21.420,110.040 21.600,109.600 21.600 C 109.160 21.600,108.800 21.780,108.800 22.000 C 108.800 22.220,108.530 22.400,108.200 22.400 C 107.870 22.400,107.600 22.580,107.600 22.800 C 107.600 23.020,107.240 23.200,106.800 23.200 C 106.360 23.200,106.000 23.380,106.000 23.600 C 106.000 23.820,105.640 24.000,105.200 24.000 C 104.760 24.000,104.400 24.180,104.400 24.400 C 104.400 24.620,104.136 24.800,103.814 24.800 C 103.001 24.800,100.400 26.076,100.400 26.474 C 100.400 26.653,100.040 26.800,99.600 26.800 C 99.160 26.800,98.800 26.980,98.800 27.200 C 98.800 27.420,98.440 27.600,98.000 27.600 C 97.560 27.600,97.200 27.780,97.200 28.000 C 97.200 28.220,96.964 28.400,96.675 28.400 C 96.387 28.400,95.764 28.760,95.292 29.200 C 94.820 29.640,94.274 30.000,94.079 30.000 C 93.884 30.000,93.398 30.360,93.000 30.800 C 92.602 31.240,92.034 31.600,91.738 31.600 C 91.442 31.600,91.200 31.780,91.200 32.000 C 91.200 32.220,90.964 32.400,90.675 32.400 C 90.387 32.400,89.764 32.760,89.292 33.200 C 88.820 33.640,88.273 34.000,88.076 34.000 C 87.879 34.000,87.154 34.540,86.463 35.200 C 85.772 35.860,84.975 36.400,84.692 36.400 C 84.409 36.400,83.917 36.760,83.600 37.200 C 83.283 37.640,82.820 38.000,82.571 38.000 C 82.322 38.000,81.554 38.540,80.863 39.200 C 80.172 39.860,79.424 40.400,79.200 40.400 C 78.976 40.400,78.228 40.940,77.537 41.600 C 76.846 42.260,76.134 42.800,75.954 42.800 C 75.774 42.800,74.997 43.430,74.227 44.200 C 73.457 44.970,72.676 45.600,72.491 45.600 C 72.307 45.600,71.035 46.680,69.665 48.000 C 68.295 49.320,67.004 50.400,66.797 50.400 C 66.304 50.400,50.400 66.304,50.400 66.797 C 50.400 67.004,49.320 68.295,48.000 69.665 C 46.680 71.035,45.600 72.307,45.600 72.491 C 45.600 72.676,44.970 73.457,44.200 74.227 C 43.430 74.997,42.800 75.774,42.800 75.954 C 42.800 76.134,42.260 76.846,41.600 77.537 C 40.940 78.228,40.400 78.976,40.400 79.200 C 40.400 79.424,39.860 80.172,39.200 80.863 C 38.540 81.554,38.000 82.322,38.000 82.571 C 38.000 82.820,37.640 83.283,37.200 83.600 C 36.760 83.917,36.400 84.409,36.400 84.692 C 36.400 84.975,35.860 85.772,35.200 86.463 C 34.540 87.154,34.000 87.879,34.000 88.076 C 34.000 88.273,33.640 88.820,33.200 89.292 C 32.760 89.764,32.400 90.387,32.400 90.675 C 32.400 90.964,32.220 91.200,32.000 91.200 C 31.780 91.200,31.600 91.442,31.600 91.738 C 31.600 92.034,31.240 92.602,30.800 93.000 C 30.360 93.398,30.000 93.884,30.000 94.079 C 30.000 94.274,29.640 94.820,29.200 95.292 C 28.760 95.764,28.400 96.387,28.400 96.675 C 28.400 96.964,28.220 97.200,28.000 97.200 C 27.780 97.200,27.600 97.560,27.600 98.000 C 27.600 98.440,27.420 98.800,27.200 98.800 C 26.980 98.800,26.800 99.160,26.800 99.600 C 26.800 100.040,26.653 100.400,26.474 100.400 C 26.076 100.400,24.800 103.001,24.800 103.814 C 24.800 104.136,24.620 104.400,24.400 104.400 C 24.180 104.400,24.000 104.760,24.000 105.200 C 24.000 105.640,23.820 106.000,23.600 106.000 C 23.380 106.000,23.200 106.360,23.200 106.800 C 23.200 107.240,23.020 107.600,22.800 107.600 C 22.580 107.600,22.400 107.870,22.400 108.200 C 22.400 108.530,22.220 108.800,22.000 108.800 C 21.780 108.800,21.600 109.160,21.600 109.600 C 21.600 110.040,21.420 110.400,21.200 110.400 C 20.980 110.400,20.800 110.760,20.800 111.200 C 20.800 111.640,20.620 112.000,20.400 112.000 C 20.180 112.000,20.000 112.360,20.000 112.800 C 20.000 113.240,19.820 113.600,19.600 113.600 C 19.380 113.600,19.200 113.960,19.200 114.400 C 19.200 114.840,19.020 115.200,18.800 115.200 C 18.580 115.200,18.400 115.560,18.400 116.000 C 18.400 116.440,18.220 116.800,18.000 116.800 C 17.780 116.800,17.600 117.160,17.600 117.600 C 17.600 118.040,17.420 118.400,17.200 118.400 C 16.980 118.400,16.800 118.749,16.800 119.176 C 16.800 119.603,16.620 120.064,16.400 120.200 C 16.180 120.336,16.000 120.887,16.000 121.424 C 16.000 121.961,15.820 122.400,15.600 122.400 C 15.380 122.400,15.200 122.760,15.200 123.200 C 15.200 123.640,15.020 124.000,14.800 124.000 C 14.580 124.000,14.400 124.355,14.400 124.788 C 14.400 125.221,14.040 126.217,13.600 127.000 C 13.160 127.783,12.800 128.779,12.800 129.212 C 12.800 129.645,12.620 130.000,12.400 130.000 C 12.180 130.000,12.000 130.540,12.000 131.200 C 12.000 131.860,11.820 132.400,11.600 132.400 C 11.380 132.400,11.200 132.816,11.200 133.325 C 11.200 133.834,10.840 134.995,10.400 135.906 C 9.960 136.816,9.600 138.020,9.600 138.581 C 9.600 139.141,9.441 139.600,9.246 139.600 C 9.051 139.600,8.768 140.590,8.617 141.800 C 8.466 143.010,8.175 144.000,7.971 144.000 C 7.767 144.000,7.600 144.720,7.600 145.600 C 7.600 146.480,7.420 147.200,7.200 147.200 C 6.980 147.200,6.800 147.920,6.800 148.800 C 6.800 149.680,6.620 150.400,6.400 150.400 C 6.180 150.400,6.000 151.120,6.000 152.000 C 6.000 152.880,5.820 153.600,5.600 153.600 C 5.380 153.600,5.200 154.320,5.200 155.200 C 5.200 156.080,5.020 156.800,4.800 156.800 C 4.580 156.800,4.400 157.610,4.400 158.600 C 4.400 159.590,4.220 160.400,4.000 160.400 C 3.780 160.400,3.600 161.300,3.600 162.400 C 3.600 163.500,3.420 164.400,3.200 164.400 C 2.978 164.400,2.800 165.467,2.800 166.800 C 2.800 168.133,2.622 169.200,2.400 169.200 C 2.171 169.200,2.000 170.400,2.000 172.000 C 2.000 173.600,1.829 174.800,1.600 174.800 C 1.363 174.800,1.200 176.259,1.200 178.376 C 1.200 180.343,1.020 182.064,0.800 182.200 C 0.251 182.539,0.251 217.461,0.800 217.800 C 1.020 217.936,1.200 219.657,1.200 221.624 C 1.200 223.741,1.363 225.200,1.600 225.200 C 1.829 225.200,2.000 226.400,2.000 228.000 C 2.000 229.600,2.171 230.800,2.400 230.800 C 2.622 230.800,2.800 231.867,2.800 233.200 C 2.800 234.533,2.978 235.600,3.200 235.600 C 3.420 235.600,3.600 236.500,3.600 237.600 C 3.600 238.700,3.780 239.600,4.000 239.600 C 4.220 239.600,4.400 240.410,4.400 241.400 C 4.400 242.390,4.580 243.200,4.800 243.200 C 5.020 243.200,5.200 243.920,5.200 244.800 C 5.200 245.680,5.380 246.400,5.600 246.400 C 5.820 246.400,6.000 247.120,6.000 248.000 C 6.000 248.880,6.180 249.600,6.400 249.600 C 6.620 249.600,6.800 250.320,6.800 251.200 C 6.800 252.080,6.980 252.800,7.200 252.800 C 7.420 252.800,7.600 253.520,7.600 254.400 C 7.600 255.280,7.759 256.000,7.954 256.000 C 8.149 256.000,8.432 256.990,8.583 258.200 C 8.734 259.410,9.025 260.400,9.229 260.400 C 9.433 260.400,9.600 260.763,9.600 261.206 C 9.600 262.333,10.531 265.200,10.897 265.200 C 11.064 265.200,11.200 265.639,11.200 266.176 C 11.200 266.713,11.380 267.264,11.600 267.400 C 11.820 267.536,12.000 268.177,12.000 268.824 C 12.000 269.471,12.180 270.000,12.400 270.000 C 12.620 270.000,12.800 270.355,12.800 270.788 C 12.800 271.221,13.160 272.217,13.600 273.000 C 14.040 273.783,14.400 274.779,14.400 275.212 C 14.400 275.645,14.580 276.000,14.800 276.000 C 15.020 276.000,15.200 276.360,15.200 276.800 C 15.200 277.240,15.380 277.600,15.600 277.600 C 15.820 277.600,16.000 278.039,16.000 278.576 C 16.000 279.113,16.180 279.664,16.400 279.800 C 16.620 279.936,16.800 280.397,16.800 280.824 C 16.800 281.251,16.980 281.600,17.200 281.600 C 17.420 281.600,17.600 281.960,17.600 282.400 C 17.600 282.840,17.780 283.200,18.000 283.200 C 18.220 283.200,18.400 283.560,18.400 284.000 C 18.400 284.440,18.580 284.800,18.800 284.800 C 19.020 284.800,19.200 285.160,19.200 285.600 C 19.200 286.040,19.380 286.400,19.600 286.400 C 19.820 286.400,20.000 286.760,20.000 287.200 C 20.000 287.640,20.180 288.000,20.400 288.000 C 20.620 288.000,20.800 288.360,20.800 288.800 C 20.800 289.240,20.980 289.600,21.200 289.600 C 21.420 289.600,21.600 289.960,21.600 290.400 C 21.600 290.840,21.780 291.200,22.000 291.200 C 22.220 291.200,22.400 291.470,22.400 291.800 C 22.400 292.130,22.580 292.400,22.800 292.400 C 23.020 292.400,23.200 292.760,23.200 293.200 C 23.200 293.640,23.380 294.000,23.600 294.000 C 23.820 294.000,24.000 294.360,24.000 294.800 C 24.000 295.240,24.180 295.600,24.400 295.600 C 24.620 295.600,24.800 295.864,24.800 296.186 C 24.800 296.999,26.076 299.600,26.474 299.600 C 26.653 299.600,26.800 299.960,26.800 300.400 C 26.800 300.840,26.980 301.200,27.200 301.200 C 27.420 301.200,27.600 301.560,27.600 302.000 C 27.600 302.440,27.780 302.800,28.000 302.800 C 28.220 302.800,28.400 303.036,28.400 303.325 C 28.400 303.613,28.760 304.236,29.200 304.708 C 29.640 305.180,30.000 305.726,30.000 305.921 C 30.000 306.116,30.360 306.602,30.800 307.000 C 31.240 307.398,31.600 307.966,31.600 308.262 C 31.600 308.558,31.780 308.800,32.000 308.800 C 32.220 308.800,32.400 309.036,32.400 309.325 C 32.400 309.613,32.760 310.236,33.200 310.708 C 33.640 311.180,34.000 311.727,34.000 311.924 C 34.000 312.121,34.540 312.846,35.200 313.537 C 35.860 314.228,36.400 315.025,36.400 315.308 C 36.400 315.591,36.760 316.083,37.200 316.400 C 37.640 316.717,38.000 317.225,38.000 317.528 C 38.000 317.831,38.540 318.583,39.200 319.200 C 39.860 319.817,40.400 320.520,40.400 320.764 C 40.400 321.008,40.940 321.772,41.600 322.463 C 42.260 323.154,42.800 323.866,42.800 324.046 C 42.800 324.226,43.430 325.003,44.200 325.773 C 44.970 326.543,45.600 327.344,45.600 327.552 C 45.600 327.760,46.680 329.027,48.000 330.368 C 49.320 331.708,50.400 332.968,50.400 333.168 C 50.400 333.655,66.306 349.600,66.792 349.600 C 67.002 349.600,68.295 350.680,69.665 352.000 C 71.035 353.320,72.307 354.400,72.491 354.400 C 72.676 354.400,73.457 355.030,74.227 355.800 C 74.997 356.570,75.756 357.201,75.913 357.202 C 76.071 357.203,76.775 357.743,77.478 358.402 C 78.181 359.061,78.964 359.600,79.218 359.600 C 79.471 359.600,80.183 360.140,80.800 360.800 C 81.417 361.460,82.169 362.000,82.472 362.000 C 82.775 362.000,83.283 362.360,83.600 362.800 C 83.917 363.240,84.409 363.600,84.692 363.600 C 84.975 363.600,85.772 364.140,86.463 364.800 C 87.154 365.460,87.879 366.000,88.076 366.000 C 88.273 366.000,88.820 366.360,89.292 366.800 C 89.764 367.240,90.387 367.600,90.675 367.600 C 90.964 367.600,91.200 367.780,91.200 368.000 C 91.200 368.220,91.442 368.400,91.738 368.400 C 92.034 368.400,92.602 368.760,93.000 369.200 C 93.398 369.640,93.884 370.000,94.079 370.000 C 94.274 370.000,94.820 370.360,95.292 370.800 C 95.764 371.240,96.387 371.600,96.675 371.600 C 96.964 371.600,97.200 371.780,97.200 372.000 C 97.200 372.220,97.560 372.400,98.000 372.400 C 98.440 372.400,98.800 372.580,98.800 372.800 C 98.800 373.020,99.078 373.200,99.417 373.200 C 99.756 373.200,100.417 373.558,100.887 373.995 C 101.356 374.432,102.339 374.902,103.070 375.040 C 103.802 375.177,104.400 375.449,104.400 375.645 C 104.400 375.840,104.760 376.000,105.200 376.000 C 105.640 376.000,106.000 376.180,106.000 376.400 C 106.000 376.620,106.360 376.800,106.800 376.800 C 107.240 376.800,107.600 376.980,107.600 377.200 C 107.600 377.420,107.870 377.600,108.200 377.600 C 108.530 377.600,108.800 377.780,108.800 378.000 C 108.800 378.220,109.160 378.400,109.600 378.400 C 110.040 378.400,110.400 378.580,110.400 378.800 C 110.400 379.020,110.760 379.200,111.200 379.200 C 111.640 379.200,112.000 379.380,112.000 379.600 C 112.000 379.820,112.360 380.000,112.800 380.000 C 113.240 380.000,113.600 380.180,113.600 380.400 C 113.600 380.620,113.960 380.800,114.400 380.800 C 114.840 380.800,115.200 380.980,115.200 381.200 C 115.200 381.420,115.560 381.600,116.000 381.600 C 116.440 381.600,116.800 381.780,116.800 382.000 C 116.800 382.220,117.160 382.400,117.600 382.400 C 118.040 382.400,118.400 382.580,118.400 382.800 C 118.400 383.020,118.749 383.200,119.176 383.200 C 119.603 383.200,120.064 383.380,120.200 383.600 C 120.336 383.820,120.887 384.000,121.424 384.000 C 121.961 384.000,122.400 384.180,122.400 384.400 C 122.400 384.620,122.760 384.800,123.200 384.800 C 123.640 384.800,124.000 384.980,124.000 385.200 C 124.000 385.420,124.355 385.600,124.788 385.600 C 125.221 385.600,126.217 385.960,127.000 386.400 C 127.783 386.840,128.779 387.200,129.212 387.200 C 129.645 387.200,130.000 387.380,130.000 387.600 C 130.000 387.820,130.540 388.000,131.200 388.000 C 131.860 388.000,132.400 388.180,132.400 388.400 C 132.400 388.620,132.940 388.800,133.600 388.800 C 134.260 388.800,134.800 388.936,134.800 389.103 C 134.800 389.469,137.667 390.400,138.794 390.400 C 139.237 390.400,139.600 390.559,139.600 390.754 C 139.600 390.949,140.590 391.232,141.800 391.383 C 143.010 391.534,144.000 391.825,144.000 392.029 C 144.000 392.233,144.720 392.400,145.600 392.400 C 146.480 392.400,147.200 392.580,147.200 392.800 C 147.200 393.020,147.920 393.200,148.800 393.200 C 149.680 393.200,150.400 393.380,150.400 393.600 C 150.400 393.820,151.120 394.000,152.000 394.000 C 152.880 394.000,153.600 394.180,153.600 394.400 C 153.600 394.620,154.320 394.800,155.200 394.800 C 156.080 394.800,156.800 394.980,156.800 395.200 C 156.800 395.420,157.610 395.600,158.600 395.600 C 159.590 395.600,160.400 395.780,160.400 396.000 C 160.400 396.220,161.300 396.400,162.400 396.400 C 163.500 396.400,164.400 396.580,164.400 396.800 C 164.400 397.022,165.467 397.200,166.800 397.200 C 168.133 397.200,169.200 397.378,169.200 397.600 C 169.200 397.829,170.400 398.000,172.000 398.000 C 173.600 398.000,174.800 398.171,174.800 398.400 C 174.800 398.637,176.259 398.800,178.376 398.800 C 180.343 398.800,182.064 398.980,182.200 399.200 C 182.539 399.749,217.461 399.749,217.800 399.200 C 217.936 398.980,219.657 398.800,221.624 398.800 C 223.741 398.800,225.200 398.637,225.200 398.400 C 225.200 398.171,226.400 398.000,228.000 398.000 C 229.600 398.000,230.800 397.829,230.800 397.600 C 230.800 397.378,231.867 397.200,233.200 397.200 C 234.533 397.200,235.600 397.022,235.600 396.800 C 235.600 396.580,236.500 396.400,237.600 396.400 C 238.700 396.400,239.600 396.220,239.600 396.000 C 239.600 395.780,240.410 395.600,241.400 395.600 C 242.390 395.600,243.200 395.420,243.200 395.200 C 243.200 394.980,243.920 394.800,244.800 394.800 C 245.680 394.800,246.400 394.620,246.400 394.400 C 246.400 394.180,247.120 394.000,248.000 394.000 C 248.880 394.000,249.600 393.820,249.600 393.600 C 249.600 393.380,250.320 393.200,251.200 393.200 C 252.080 393.200,252.800 393.020,252.800 392.800 C 252.800 392.580,253.520 392.400,254.400 392.400 C 255.280 392.400,256.000 392.241,256.000 392.046 C 256.000 391.851,256.990 391.568,258.200 391.417 C 259.410 391.266,260.400 390.975,260.400 390.771 C 260.400 390.567,260.763 390.400,261.206 390.400 C 262.333 390.400,265.200 389.469,265.200 389.103 C 265.200 388.936,265.740 388.800,266.400 388.800 C 267.060 388.800,267.600 388.620,267.600 388.400 C 267.600 388.180,268.140 388.000,268.800 388.000 C 269.460 388.000,270.000 387.820,270.000 387.600 C 270.000 387.380,270.355 387.200,270.788 387.200 C 271.221 387.200,272.217 386.840,273.000 386.400 C 273.783 385.960,274.779 385.600,275.212 385.600 C 275.645 385.600,276.000 385.420,276.000 385.200 C 276.000 384.980,276.360 384.800,276.800 384.800 C 277.240 384.800,277.600 384.620,277.600 384.400 C 277.600 384.180,278.039 384.000,278.576 384.000 C 279.113 384.000,279.664 383.820,279.800 383.600 C 279.936 383.380,280.397 383.200,280.824 383.200 C 281.251 383.200,281.600 383.020,281.600 382.800 C 281.600 382.580,281.960 382.400,282.400 382.400 C 282.840 382.400,283.200 382.220,283.200 382.000 C 283.200 381.780,283.560 381.600,284.000 381.600 C 284.440 381.600,284.800 381.420,284.800 381.200 C 284.800 380.980,285.160 380.800,285.600 380.800 C 286.040 380.800,286.400 380.620,286.400 380.400 C 286.400 380.180,286.760 380.000,287.200 380.000 C 287.640 380.000,288.000 379.820,288.000 379.600 C 288.000 379.380,288.360 379.200,288.800 379.200 C 289.240 379.200,289.600 379.020,289.600 378.800 C 289.600 378.580,289.960 378.400,290.400 378.400 C 290.840 378.400,291.200 378.220,291.200 378.000 C 291.200 377.780,291.470 377.600,291.800 377.600 C 292.130 377.600,292.400 377.420,292.400 377.200 C 292.400 376.980,292.760 376.800,293.200 376.800 C 293.640 376.800,294.000 376.620,294.000 376.400 C 294.000 376.180,294.360 376.000,294.800 376.000 C 295.240 376.000,295.600 375.840,295.600 375.645 C 295.600 375.449,296.198 375.177,296.930 375.040 C 297.661 374.902,298.644 374.432,299.113 373.995 C 299.583 373.558,300.229 373.200,300.550 373.200 C 300.871 373.200,301.193 373.065,301.267 372.900 C 301.340 372.735,302.255 372.167,303.300 371.637 C 304.345 371.108,305.200 370.523,305.200 370.337 C 305.200 370.152,305.436 370.000,305.725 370.000 C 306.013 370.000,306.636 369.640,307.108 369.200 C 307.580 368.760,308.154 368.400,308.383 368.400 C 308.612 368.400,308.800 368.220,308.800 368.000 C 308.800 367.780,309.036 367.600,309.325 367.600 C 309.613 367.600,310.236 367.240,310.708 366.800 C 311.180 366.360,311.727 366.000,311.924 366.000 C 312.121 366.000,312.846 365.460,313.537 364.800 C 314.228 364.140,315.025 363.600,315.308 363.600 C 315.591 363.600,316.083 363.240,316.400 362.800 C 316.717 362.360,317.180 362.000,317.429 362.000 C 317.678 362.000,318.446 361.460,319.137 360.800 C 319.828 360.140,320.664 359.600,320.996 359.600 C 321.328 359.600,321.601 359.465,321.603 359.300 C 321.604 359.135,322.270 358.550,323.083 358.000 C 323.896 357.450,325.149 356.415,325.867 355.700 C 326.586 354.985,327.344 354.400,327.552 354.400 C 327.760 354.400,329.027 353.320,330.368 352.000 C 331.708 350.680,332.980 349.600,333.193 349.600 C 333.699 349.600,349.600 333.699,349.600 333.193 C 349.600 332.980,350.680 331.708,352.000 330.368 C 353.320 329.027,354.400 327.760,354.400 327.552 C 354.400 327.344,354.985 326.586,355.700 325.867 C 356.415 325.149,357.450 323.896,358.000 323.083 C 358.550 322.270,359.135 321.604,359.300 321.603 C 359.465 321.601,359.600 321.328,359.600 320.996 C 359.600 320.664,360.140 319.828,360.800 319.137 C 361.460 318.446,362.000 317.678,362.000 317.429 C 362.000 317.180,362.360 316.717,362.800 316.400 C 363.240 316.083,363.600 315.591,363.600 315.308 C 363.600 315.025,364.140 314.228,364.800 313.537 C 365.460 312.846,366.000 312.121,366.000 311.924 C 366.000 311.727,366.360 311.180,366.800 310.708 C 367.240 310.236,367.600 309.613,367.600 309.325 C 367.600 309.036,367.780 308.800,368.000 308.800 C 368.220 308.800,368.400 308.612,368.400 308.383 C 368.400 308.154,368.760 307.580,369.200 307.108 C 369.640 306.636,370.000 306.013,370.000 305.725 C 370.000 305.436,370.152 305.200,370.337 305.200 C 370.523 305.200,371.108 304.345,371.637 303.300 C 372.167 302.255,372.735 301.340,372.900 301.267 C 373.065 301.193,373.200 300.871,373.200 300.550 C 373.200 300.229,373.558 299.583,373.995 299.113 C 374.432 298.644,374.902 297.661,375.040 296.930 C 375.177 296.198,375.449 295.600,375.645 295.600 C 375.840 295.600,376.000 295.240,376.000 294.800 C 376.000 294.360,376.180 294.000,376.400 294.000 C 376.620 294.000,376.800 293.640,376.800 293.200 C 376.800 292.760,376.980 292.400,377.200 292.400 C 377.420 292.400,377.600 292.130,377.600 291.800 C 377.600 291.470,377.780 291.200,378.000 291.200 C 378.220 291.200,378.400 290.840,378.400 290.400 C 378.400 289.960,378.580 289.600,378.800 289.600 C 379.020 289.600,379.200 289.240,379.200 288.800 C 379.200 288.360,379.380 288.000,379.600 288.000 C 379.820 288.000,380.000 287.640,380.000 287.200 C 380.000 286.760,380.180 286.400,380.400 286.400 C 380.620 286.400,380.800 286.040,380.800 285.600 C 380.800 285.160,380.980 284.800,381.200 284.800 C 381.420 284.800,381.600 284.440,381.600 284.000 C 381.600 283.560,381.780 283.200,382.000 283.200 C 382.220 283.200,382.400 282.840,382.400 282.400 C 382.400 281.960,382.580 281.600,382.800 281.600 C 383.020 281.600,383.200 281.251,383.200 280.824 C 383.200 280.397,383.380 279.936,383.600 279.800 C 383.820 279.664,384.000 279.113,384.000 278.576 C 384.000 278.039,384.180 277.600,384.400 277.600 C 384.620 277.600,384.800 277.240,384.800 276.800 C 384.800 276.360,384.980 276.000,385.200 276.000 C 385.420 276.000,385.600 275.645,385.600 275.212 C 385.600 274.779,385.960 273.783,386.400 273.000 C 386.840 272.217,387.200 271.221,387.200 270.788 C 387.200 270.355,387.380 270.000,387.600 270.000 C 387.820 270.000,388.000 269.460,388.000 268.800 C 388.000 268.140,388.180 267.600,388.400 267.600 C 388.620 267.600,388.800 267.060,388.800 266.400 C 388.800 265.740,388.936 265.200,389.103 265.200 C 389.469 265.200,390.400 262.333,390.400 261.206 C 390.400 260.763,390.567 260.400,390.771 260.400 C 390.975 260.400,391.266 259.410,391.417 258.200 C 391.568 256.990,391.851 256.000,392.046 256.000 C 392.241 256.000,392.400 255.280,392.400 254.400 C 392.400 253.520,392.580 252.800,392.800 252.800 C 393.020 252.800,393.200 252.080,393.200 251.200 C 393.200 250.320,393.380 249.600,393.600 249.600 C 393.820 249.600,394.000 248.880,394.000 248.000 C 394.000 247.120,394.180 246.400,394.400 246.400 C 394.620 246.400,394.800 245.680,394.800 244.800 C 394.800 243.920,394.980 243.200,395.200 243.200 C 395.420 243.200,395.600 242.390,395.600 241.400 C 395.600 240.410,395.780 239.600,396.000 239.600 C 396.220 239.600,396.400 238.700,396.400 237.600 C 396.400 236.500,396.580 235.600,396.800 235.600 C 397.022 235.600,397.200 234.533,397.200 233.200 C 397.200 231.867,397.378 230.800,397.600 230.800 C 397.829 230.800,398.000 229.600,398.000 228.000 C 398.000 226.400,398.171 225.200,398.400 225.200 C 398.637 225.200,398.800 223.741,398.800 221.624 C 398.800 219.657,398.980 217.936,399.200 217.800 C 399.457 217.641,399.600 211.270,399.600 200.000 C 399.600 188.730,399.457 182.359,399.200 182.200 C 398.980 182.064,398.800 180.343,398.800 178.376 C 398.800 176.259,398.637 174.800,398.400 174.800 C 398.171 174.800,398.000 173.600,398.000 172.000 C 398.000 170.400,397.829 169.200,397.600 169.200 C 397.378 169.200,397.200 168.133,397.200 166.800 C 397.200 165.467,397.022 164.400,396.800 164.400 C 396.580 164.400,396.400 163.500,396.400 162.400 C 396.400 161.300,396.220 160.400,396.000 160.400 C 395.780 160.400,395.600 159.590,395.600 158.600 C 395.600 157.610,395.420 156.800,395.200 156.800 C 394.980 156.800,394.800 156.080,394.800 155.200 C 394.800 154.320,394.620 153.600,394.400 153.600 C 394.180 153.600,394.000 152.880,394.000 152.000 C 394.000 151.120,393.820 150.400,393.600 150.400 C 393.380 150.400,393.200 149.680,393.200 148.800 C 393.200 147.920,393.020 147.200,392.800 147.200 C 392.580 147.200,392.400 146.480,392.400 145.600 C 392.400 144.720,392.233 144.000,392.029 144.000 C 391.825 144.000,391.534 143.010,391.383 141.800 C 391.232 140.590,390.949 139.600,390.754 139.600 C 390.559 139.600,390.400 139.237,390.400 138.794 C 390.400 137.667,389.469 134.800,389.103 134.800 C 388.936 134.800,388.800 134.260,388.800 133.600 C 388.800 132.940,388.620 132.400,388.400 132.400 C 388.180 132.400,388.000 131.860,388.000 131.200 C 388.000 130.540,387.820 130.000,387.600 130.000 C 387.380 130.000,387.200 129.645,387.200 129.212 C 387.200 128.779,386.840 127.783,386.400 127.000 C 385.960 126.217,385.600 125.221,385.600 124.788 C 385.600 124.355,385.420 124.000,385.200 124.000 C 384.980 124.000,384.800 123.640,384.800 123.200 C 384.800 122.760,384.620 122.400,384.400 122.400 C 384.180 122.400,384.000 121.961,384.000 121.424 C 384.000 120.887,383.820 120.336,383.600 120.200 C 383.380 120.064,383.200 119.603,383.200 119.176 C 383.200 118.749,383.020 118.400,382.800 118.400 C 382.580 118.400,382.400 118.040,382.400 117.600 C 382.400 117.160,382.220 116.800,382.000 116.800 C 381.780 116.800,381.600 116.440,381.600 116.000 C 381.600 115.560,381.420 115.200,381.200 115.200 C 380.980 115.200,380.800 114.840,380.800 114.400 C 380.800 113.960,380.620 113.600,380.400 113.600 C 380.180 113.600,380.000 113.240,380.000 112.800 C 380.000 112.360,379.820 112.000,379.600 112.000 C 379.380 112.000,379.200 111.640,379.200 111.200 C 379.200 110.760,379.020 110.400,378.800 110.400 C 378.580 110.400,378.400 110.040,378.400 109.600 C 378.400 109.160,378.220 108.800,378.000 108.800 C 377.780 108.800,377.600 108.530,377.600 108.200 C 377.600 107.870,377.420 107.600,377.200 107.600 C 376.980 107.600,376.800 107.240,376.800 106.800 C 376.800 106.360,376.620 106.000,376.400 106.000 C 376.180 106.000,376.000 105.640,376.000 105.200 C 376.000 104.760,375.840 104.400,375.645 104.400 C 375.449 104.400,375.177 103.802,375.040 103.070 C 374.902 102.339,374.432 101.356,373.995 100.887 C 373.558 100.417,373.200 99.756,373.200 99.417 C 373.200 99.078,373.020 98.800,372.800 98.800 C 372.580 98.800,372.400 98.440,372.400 98.000 C 372.400 97.560,372.220 97.200,372.000 97.200 C 371.780 97.200,371.600 96.964,371.600 96.675 C 371.600 96.387,371.240 95.764,370.800 95.292 C 370.360 94.820,370.000 94.274,370.000 94.079 C 370.000 93.884,369.640 93.398,369.200 93.000 C 368.760 92.602,368.400 92.034,368.400 91.738 C 368.400 91.442,368.220 91.200,368.000 91.200 C 367.780 91.200,367.600 90.964,367.600 90.675 C 367.600 90.387,367.240 89.764,366.800 89.292 C 366.360 88.820,366.000 88.273,366.000 88.076 C 366.000 87.879,365.460 87.154,364.800 86.463 C 364.140 85.772,363.600 84.975,363.600 84.692 C 363.600 84.409,363.240 83.917,362.800 83.600 C 362.360 83.283,362.000 82.775,362.000 82.472 C 362.000 82.169,361.460 81.417,360.800 80.800 C 360.140 80.183,359.600 79.471,359.600 79.218 C 359.600 78.964,359.061 78.181,358.402 77.478 C 357.743 76.775,357.203 76.071,357.202 75.913 C 357.201 75.756,356.570 74.997,355.800 74.227 C 355.030 73.457,354.400 72.676,354.400 72.491 C 354.400 72.307,353.320 71.035,352.000 69.665 C 350.680 68.295,349.600 67.002,349.600 66.792 C 349.600 66.306,333.655 50.400,333.168 50.400 C 332.968 50.400,331.708 49.320,330.368 48.000 C 329.027 46.680,327.760 45.600,327.552 45.600 C 327.344 45.600,326.543 44.970,325.773 44.200 C 325.003 43.430,324.226 42.800,324.046 42.800 C 323.866 42.800,323.154 42.260,322.463 41.600 C 321.772 40.940,321.008 40.400,320.764 40.400 C 320.520 40.400,319.817 39.860,319.200 39.200 C 318.583 38.540,317.831 38.000,317.528 38.000 C 317.225 38.000,316.717 37.640,316.400 37.200 C 316.083 36.760,315.591 36.400,315.308 36.400 C 315.025 36.400,314.228 35.860,313.537 35.200 C 312.846 34.540,312.121 34.000,311.924 34.000 C 311.727 34.000,311.180 33.640,310.708 33.200 C 310.236 32.760,309.613 32.400,309.325 32.400 C 309.036 32.400,308.800 32.220,308.800 32.000 C 308.800 31.780,308.558 31.600,308.262 31.600 C 307.966 31.600,307.398 31.240,307.000 30.800 C 306.602 30.360,306.116 30.000,305.921 30.000 C 305.726 30.000,305.180 29.640,304.708 29.200 C 304.236 28.760,303.613 28.400,303.325 28.400 C 303.036 28.400,302.800 28.220,302.800 28.000 C 302.800 27.780,302.440 27.600,302.000 27.600 C 301.560 27.600,301.200 27.420,301.200 27.200 C 301.200 26.980,300.840 26.800,300.400 26.800 C 299.960 26.800,299.600 26.653,299.600 26.474 C 299.600 26.076,296.999 24.800,296.186 24.800 C 295.864 24.800,295.600 24.620,295.600 24.400 C 295.600 24.180,295.240 24.000,294.800 24.000 C 294.360 24.000,294.000 23.820,294.000 23.600 C 294.000 23.380,293.640 23.200,293.200 23.200 C 292.760 23.200,292.400 23.020,292.400 22.800 C 292.400 22.580,292.130 22.400,291.800 22.400 C 291.470 22.400,291.200 22.220,291.200 22.000 C 291.200 21.780,290.840 21.600,290.400 21.600 C 289.960 21.600,289.600 21.420,289.600 21.200 C 289.600 20.980,289.240 20.800,288.800 20.800 C 288.360 20.800,288.000 20.620,288.000 20.400 C 288.000 20.180,287.640 20.000,287.200 20.000 C 286.760 20.000,286.400 19.820,286.400 19.600 C 286.400 19.380,286.040 19.200,285.600 19.200 C 285.160 19.200,284.800 19.020,284.800 18.800 C 284.800 18.580,284.440 18.400,284.000 18.400 C 283.560 18.400,283.200 18.220,283.200 18.000 C 283.200 17.780,282.840 17.600,282.400 17.600 C 281.960 17.600,281.600 17.420,281.600 17.200 C 281.600 16.980,281.251 16.800,280.824 16.800 C 280.397 16.800,279.936 16.620,279.800 16.400 C 279.664 16.180,279.113 16.000,278.576 16.000 C 278.039 16.000,277.600 15.820,277.600 15.600 C 277.600 15.380,277.240 15.200,276.800 15.200 C 276.360 15.200,276.000 15.020,276.000 14.800 C 276.000 14.580,275.645 14.400,275.212 14.400 C 274.779 14.400,273.783 14.040,273.000 13.600 C 272.217 13.160,271.221 12.800,270.788 12.800 C 270.355 12.800,270.000 12.620,270.000 12.400 C 270.000 12.180,269.471 12.000,268.824 12.000 C 268.177 12.000,267.536 11.820,267.400 11.600 C 267.264 11.380,266.713 11.200,266.176 11.200 C 265.639 11.200,265.200 11.064,265.200 10.897 C 265.200 10.531,262.333 9.600,261.206 9.600 C 260.763 9.600,260.400 9.433,260.400 9.229 C 260.400 9.025,259.410 8.734,258.200 8.583 C 256.990 8.432,256.000 8.149,256.000 7.954 C 256.000 7.759,255.280 7.600,254.400 7.600 C 253.520 7.600,252.800 7.420,252.800 7.200 C 252.800 6.980,252.080 6.800,251.200 6.800 C 250.320 6.800,249.600 6.620,249.600 6.400 C 249.600 6.180,248.880 6.000,248.000 6.000 C 247.120 6.000,246.400 5.820,246.400 5.600 C 246.400 5.380,245.680 5.200,244.800 5.200 C 243.920 5.200,243.200 5.020,243.200 4.800 C 243.200 4.580,242.390 4.400,241.400 4.400 C 240.410 4.400,239.600 4.220,239.600 4.000 C 239.600 3.780,238.700 3.600,237.600 3.600 C 236.500 3.600,235.600 3.420,235.600 3.200 C 235.600 2.978,234.533 2.800,233.200 2.800 C 231.867 2.800,230.800 2.622,230.800 2.400 C 230.800 2.171,229.600 2.000,228.000 2.000 C 226.400 2.000,225.200 1.829,225.200 1.600 C 225.200 1.363,223.741 1.200,221.624 1.200 C 219.657 1.200,217.936 1.020,217.800 0.800 C 217.461 0.251,182.539 0.251,182.200 0.800 M338.251 68.997 C 339.951 71.557,339.942 72.405,338.160 78.313 C 335.440 87.325,334.425 97.015,333.832 119.600 C 333.672 125.693,333.372 126.806,330.980 130.200 C 329.431 132.397,329.232 132.971,328.623 137.000 C 327.796 142.467,327.032 144.882,323.496 153.200 C 321.953 156.830,320.357 160.766,319.950 161.947 C 319.544 163.128,318.372 165.468,317.347 167.147 C 313.896 172.800,312.382 175.738,310.959 179.536 C 309.165 184.326,307.283 187.631,299.989 198.800 C 291.916 211.163,291.404 211.933,289.806 214.144 C 287.488 217.348,287.960 219.185,292.250 223.661 C 293.652 225.125,294.800 226.506,294.800 226.730 C 294.800 226.954,295.925 228.368,297.300 229.872 C 298.675 231.376,300.419 233.415,301.175 234.403 C 301.931 235.392,303.731 237.467,305.175 239.016 C 308.904 243.017,310.576 245.428,313.624 251.200 C 314.147 252.190,314.787 253.270,315.047 253.600 C 315.968 254.771,317.200 257.234,317.203 257.912 C 317.205 258.290,318.095 260.440,319.181 262.689 C 320.266 264.938,321.609 268.037,322.164 269.576 C 323.504 273.291,324.586 274.927,328.335 278.907 C 334.924 285.901,334.223 286.463,325.151 281.462 C 320.424 278.856,316.409 275.769,312.157 271.473 C 307.436 266.704,301.779 261.638,298.910 259.612 C 295.777 257.400,291.430 253.003,289.804 250.400 C 289.186 249.410,287.733 247.572,286.575 246.315 C 285.417 245.058,283.468 242.493,282.244 240.615 C 279.105 235.799,278.775 235.830,273.451 241.440 C 271.238 243.771,269.026 246.223,268.535 246.888 C 268.045 247.553,266.959 248.562,266.122 249.131 C 265.285 249.699,263.386 251.102,261.903 252.248 C 260.420 253.394,258.350 254.644,257.303 255.026 C 253.508 256.410,252.001 257.168,248.487 259.463 C 246.519 260.748,244.306 262.160,243.568 262.600 C 242.830 263.040,241.766 263.689,241.203 264.042 C 240.612 264.412,238.916 264.768,237.190 264.884 C 233.925 265.103,231.851 265.853,224.757 269.381 C 220.902 271.298,217.522 272.501,204.800 276.485 L 200.600 277.800 200.705 279.600 C 200.763 280.590,200.974 282.030,201.173 282.800 C 204.074 293.997,205.236 298.161,205.575 298.583 C 206.588 299.845,206.763 323.728,205.791 328.200 C 205.409 329.960,204.982 332.028,204.842 332.796 C 204.365 335.413,202.059 333.575,200.750 329.535 C 200.013 327.257,196.386 317.904,195.424 315.800 C 194.392 313.541,193.600 311.202,193.600 310.412 C 193.600 309.138,189.299 300.677,186.885 297.202 C 185.433 295.111,183.399 292.140,182.365 290.600 C 181.331 289.060,180.151 287.509,179.742 287.153 C 179.334 286.798,178.497 285.853,177.883 285.053 C 176.557 283.328,176.370 283.315,171.086 284.588 C 168.829 285.132,164.737 285.747,161.992 285.955 C 155.463 286.450,154.014 286.976,151.547 289.744 C 150.271 291.175,148.774 292.331,147.289 293.029 C 146.030 293.621,141.940 296.125,138.200 298.594 C 134.460 301.062,129.825 304.095,127.899 305.332 C 124.384 307.592,123.233 308.889,122.339 311.600 C 121.321 314.687,118.500 317.860,117.586 316.946 C 116.775 316.135,117.256 304.065,118.198 301.600 C 119.310 298.689,119.172 294.657,117.866 291.941 C 116.082 288.229,115.936 288.203,110.600 290.619 C 109.500 291.118,107.520 291.829,106.200 292.201 C 104.880 292.573,102.630 293.551,101.200 294.375 C 93.869 298.598,91.772 299.681,87.571 301.414 C 85.057 302.451,82.171 303.546,81.157 303.848 C 80.143 304.150,78.629 304.941,77.792 305.606 C 76.955 306.271,75.325 307.090,74.168 307.426 C 71.818 308.110,67.863 310.538,66.517 312.125 C 65.136 313.754,62.540 314.915,60.948 314.617 C 59.201 314.289,59.232 313.518,61.049 312.117 C 61.846 311.503,63.601 310.093,64.949 308.984 C 66.297 307.875,68.750 305.998,70.400 304.813 C 72.050 303.628,74.840 301.188,76.600 299.392 C 78.360 297.596,81.600 294.837,83.800 293.261 C 86.000 291.685,89.491 289.158,91.558 287.644 C 93.625 286.130,97.135 283.875,99.358 282.632 C 101.581 281.389,104.521 279.423,105.892 278.262 C 107.481 276.916,110.888 274.869,115.292 272.615 C 119.091 270.670,123.275 268.279,124.590 267.302 C 125.904 266.324,127.614 265.200,128.390 264.803 C 129.165 264.407,130.616 263.363,131.612 262.484 C 132.609 261.605,135.939 259.608,139.012 258.045 C 145.642 254.675,154.182 247.908,160.100 241.335 C 165.151 235.725,165.337 235.931,155.300 236.019 C 147.286 236.090,144.617 235.829,142.230 234.741 C 140.139 233.788,141.627 231.200,144.264 231.200 C 145.070 231.200,148.355 230.596,151.564 229.857 C 154.774 229.119,159.380 228.210,161.800 227.837 C 175.364 225.748,184.494 221.092,188.354 214.296 C 189.898 211.579,191.378 210.359,194.835 208.955 C 198.726 207.374,209.414 200.958,210.900 199.312 C 211.950 198.149,218.368 195.466,227.000 192.582 C 233.142 190.530,236.160 189.399,239.786 187.792 C 242.253 186.698,243.694 186.511,256.600 185.611 C 265.479 184.991,267.851 184.117,276.852 178.149 C 284.117 173.332,284.923 172.522,288.567 166.385 C 290.064 163.863,292.147 160.630,293.195 159.200 C 294.244 157.770,295.505 155.790,295.997 154.800 C 296.489 153.810,297.585 152.091,298.433 150.979 C 300.491 148.282,301.619 145.623,301.874 142.870 C 301.990 141.621,302.413 139.610,302.815 138.400 C 303.361 136.755,303.602 134.435,303.768 129.200 C 304.243 114.272,307.318 105.776,314.000 100.929 C 314.990 100.211,316.270 99.265,316.845 98.827 C 317.420 98.389,318.669 96.719,319.621 95.115 C 320.573 93.512,322.285 90.850,323.426 89.200 C 325.571 86.097,328.534 80.195,331.257 73.600 C 332.474 70.653,333.205 69.467,334.513 68.317 C 336.659 66.430,336.531 66.407,338.251 68.997 " stroke="none" fill="#5bb3db" fill-rule="evenodd"></path></g></svg>