<?xml version="1.0" encoding="UTF-8"?>
<!DOCTYPE svg PUBLIC "-//W3C//DTD SVG 1.1//EN" "http://www.w3.org/Graphics/SVG/1.1/DTD/svg11.dtd">
<svg version="1.1" xmlns="http://www.w3.org/2000/svg" xmlns:xlink="http://www.w3.org/1999/xlink" x="0" y="0" width="1220" height="1220" viewBox="0, -500, 1220, 720">
  <g>
    <g>
      <path d="M1109.279,224.102 C1082.22,300.92 1082.22,325.706 946.741,336.802 C827.442,346.57 754.962,335.573 719.129,251.97 C683.298,168.367 699.417,99.88 760.617,70.215 C827.542,37.773 1061.506,25.045 1113.261,68.838 C1143.191,94.164 1128.81,168.66 1109.279,224.102 M499.428,251.97 C463.597,335.573 391.115,346.57 271.816,336.802 C136.338,325.706 136.338,300.92 109.278,224.102 C89.749,168.66 75.365,94.164 105.297,68.838 C157.051,25.045 391.016,37.773 457.941,70.215 C519.14,99.88 535.258,168.367 499.428,251.97 M1210.281,48.933 C1094.612,-13.032 887.528,0.614 813.711,15.886 C711.085,37.118 672.13,56.764 663.065,102.274 C616.204,90.766 578.508,95.445 555.293,101.314 C545.871,56.49 506.745,36.966 404.847,15.886 C331.028,0.614 123.945,-13.032 8.276,48.933 L4.144,123.291 C4.144,123.291 45.455,135.683 53.716,156.338 C61.978,176.994 86.763,300.921 140.466,333.97 C194.169,367.017 414.303,381.874 478.514,331.216 C547.233,277 556.492,203.162 557.563,143.522 C574.004,138.164 611.107,130.226 661.013,144.465 C662.164,203.939 671.686,277.286 740.045,331.216 C804.254,381.874 1024.39,367.017 1078.092,333.97 C1131.795,300.921 1156.578,176.994 1164.842,156.338 C1173.103,135.683 1214.414,123.291 1214.414,123.291 z" fill="#fe55fe"/>
    </g>
  </g>
</svg>
